<?xml version="1.0" encoding="utf-8"?>
<!-- Generator: Adobe Illustrator 23.0.1, SVG Export Plug-In . SVG Version: 6.00 Build 0)  -->
<svg version="1.1" id="Layer_1" xmlns="http://www.w3.org/2000/svg" xmlns:xlink="http://www.w3.org/1999/xlink" x="0px" y="0px"
	 viewBox="0 0 100 100" style="enable-background:new 0 0 100 100;" xml:space="preserve" fill="#fff">
<g>
	<circle cx="45.2" cy="47.1" r="12"/>
	<path d="M63.9,78.9c-0.8-0.7-0.9-1.8-0.4-2.7l5.8-9.8c0.5-0.9,1.6-1.3,2.6-0.9l1.7,0.6c1.2,0.4,2.6-0.3,2.8-1.6l0,0l0.5-2.1
		c0.3-1,1.2-1.7,2.3-1.6l3,0.2l5.8,0.2c1.5-4.4,2.3-9.2,2.3-14.1c0-24.9-20.3-45.2-45.2-45.2C20.3,1.9,0,22.2,0,47.1
		C0,72,20.3,92.3,45.2,92.3c6.6,0,12.9-1.4,18.5-4l-0.4-0.6c-0.6-0.9-0.4-2.1,0.4-2.8l1.6-1.5c1-0.9,1-2.4,0-3.2L63.9,78.9z
		 M45.2,72.2c-13.8,0-25.1-11.3-25.1-25.1S31.3,22,45.2,22s25.1,11.3,25.1,25.1S59,72.2,45.2,72.2z"/>
	<path d="M98.1,85.3c-0.9-0.8-1.4-2.1-1.4-3.3c0,0,0,0,0,0c0,0,0,0,0,0c0-1.2,0.5-2.5,1.4-3.3l1.2-1l0.7-0.7L99.6,76l-2.4-4.3
		l-0.4-0.8l-1.1,0.3l-1.6,0.6c-1.2,0.4-2.5,0.3-3.5-0.4c-0.1,0-0.1-0.1-0.2-0.1c-1-0.6-1.7-1.6-1.9-2.7c-0.2-0.8-0.3-1.6-0.3-1.6
		l-0.2-1.1h-1.1h-5h-1.1l-0.2,1.1l-0.4,1.7c-0.2,1.1-0.9,2.1-1.9,2.7l-0.2,0.1c-1.1,0.7-2.4,0.8-3.6,0.4l-1.6-0.6L72,70.8l-0.4,0.8
		L69.1,76l-0.4,0.8l0.7,0.7l1.2,1c0.9,0.8,1.4,2.1,1.4,3.3c0,0,0,0,0,0c0,0,0,0,0,0c0,1.2-0.5,2.5-1.4,3.3l-1.2,1l-0.7,0.7l0.4,0.8
		l2.4,4.3l0.4,0.8l1.1-0.3l1.6-0.6c1.2-0.4,2.5-0.3,3.5,0.4c0.1,0,0.1,0.1,0.2,0.1c1,0.6,1.7,1.6,1.9,2.7c0.2,0.8,0.3,1.6,0.3,1.6
		l0.2,1.1h1.1h5h1.1l0.2-1.1l0.3-1.6c0.2-1.1,0.9-2.1,1.9-2.7c0.1,0,0.1-0.1,0.2-0.1c1.1-0.6,2.3-0.8,3.5-0.4l1.6,0.6l1.1,0.3
		l0.4-0.8l2.4-4.3l0.4-0.8l-0.7-0.7L98.1,85.3z M89.5,83.1c-0.4,2-2,3.6-4,4c-3.9,0.8-7.3-2.5-6.5-6.5c0.4-2,2-3.6,4-4
		C87,75.8,90.4,79.2,89.5,83.1z"/>
</g>
</svg>
